
      <svg data-logo="logo" xmlns="http://www.w3.org/2000/svg" viewBox="0 0 165 35">
        <g id="logogram" transform="translate(0, 17.5) rotate(0) "></g>
        <g id="logotype" transform="translate(0, 1)"><path fill="white" d="M12.81 28L0.70 28Q0.70 25.52 0.70 23.03Q0.70 20.54 0.70 18.04Q0.70 15.54 0.70 13.05L0.70 13.05Q0.70 11.34 0.70 9.66Q0.70 7.98 0.70 6.30L0.70 6.30L12.81 6.30Q12.81 8.61 12.81 10.90Q12.81 13.19 12.81 15.50L12.81 15.50Q12.81 18.62 12.81 21.75Q12.81 24.88 12.81 28L12.81 28ZM28.84 28L16.73 28Q16.73 25.27 16.73 22.47Q16.73 19.67 16.73 16.94L16.73 16.94Q16.73 15.92 16.22 15.50Q15.72 15.08 15.02 15.05Q14.32 15.01 13.74 15.22Q13.16 15.43 13.02 15.64L13.02 15.64L15.82 6.65Q18.38 5.53 21.35 5.53L21.35 5.53Q22.82 5.53 24.15 5.88Q25.48 6.23 26.55 6.96Q27.62 7.70 28.23 8.91Q28.84 10.11 28.84 11.79L28.84 11.79Q28.84 12.81 28.84 13.86Q28.84 14.91 28.84 15.92L28.84 15.92Q28.84 16.41 28.84 16.92Q28.84 17.43 28.84 17.92Q28.84 18.41 28.84 18.93L28.84 18.93Q28.84 21.17 28.84 23.45Q28.84 25.73 28.84 28L28.84 28ZM44.66 28L32.55 28Q32.55 25.27 32.55 22.47Q32.55 19.67 32.55 16.94L32.55 16.94Q32.55 15.92 32.04 15.50Q31.54 15.08 30.84 15.05Q30.14 15.01 29.56 15.22Q28.98 15.43 28.84 15.64L28.84 15.64L31.29 6.65Q32.55 6.09 34.00 5.81Q35.46 5.53 36.89 5.53L36.89 5.53Q38.92 5.53 40.69 6.16Q42.46 6.79 43.56 8.15Q44.66 9.52 44.66 11.79L44.66 11.79L44.66 28ZM61.50 20.09L61.50 20.09Q63.35 20.09 64.37 19.42Q65.38 18.76 65.42 17.60L65.42 17.60L76.23 21.14Q75.60 23.34 73.55 25.15Q71.51 26.95 68.39 28Q65.28 29.05 61.43 29.05L61.43 29.05Q58.14 29.05 55.28 28.32Q52.43 27.58 50.28 26.09Q48.13 24.61 46.90 22.36Q45.68 20.13 45.68 17.15L45.68 17.15Q45.68 14.17 46.90 11.93Q48.13 9.69 50.28 8.21Q52.43 6.72 55.30 5.98Q58.17 5.25 61.43 5.25L61.43 5.25Q64.75 5.25 67.53 5.98Q70.31 6.72 72.33 8.24Q74.34 9.76 75.44 12.09Q76.55 14.42 76.55 17.60L76.55 17.60L57.47 17.60Q57.47 17.60 57.45 17.60Q57.44 17.60 57.44 17.60Q57.44 17.60 57.44 17.64L57.44 17.64Q57.44 18.16 57.72 18.62Q58.00 19.07 58.50 19.41Q59.01 19.74 59.76 19.91Q60.52 20.09 61.50 20.09ZM61.43 14.10L61.43 14.10Q59.71 14.10 58.59 14.72Q57.47 15.33 57.47 16.45L57.47 16.45Q57.47 16.48 57.47 16.50Q57.47 16.52 57.47 16.52Q57.47 16.52 57.49 16.52Q57.51 16.52 57.51 16.52L57.51 16.52L65.31 16.52Q65.34 16.52 65.34 16.50Q65.34 16.48 65.34 16.45L65.34 16.45Q65.34 15.89 65.05 15.45Q64.75 15.01 64.23 14.72Q63.70 14.42 62.98 14.26Q62.27 14.10 61.43 14.10ZM77.53 6.30L89.64 6.30Q89.64 8.40 89.64 10.52Q89.64 12.63 89.64 14.75Q89.64 16.87 89.64 19.00L89.64 19.00Q89.64 21.24 89.64 23.48Q89.64 25.73 89.64 28L89.64 28L77.53 28Q77.53 24.54 77.53 21.07Q77.53 17.60 77.53 14.14L77.53 14.14Q77.53 12.18 77.53 10.22Q77.53 8.26 77.53 6.30L77.53 6.30ZM89.60 19.67L89.60 19.67L91.49 10.25Q91.81 8.75 92.73 7.75Q93.66 6.75 94.92 6.23Q96.18 5.70 97.51 5.58Q98.84 5.46 99.96 5.69Q101.08 5.91 101.75 6.44L101.75 6.44L99.09 19.46Q98.07 18.62 96.62 18.30Q95.17 17.99 93.70 18.08Q92.23 18.16 91.11 18.59Q89.98 19.00 89.60 19.67ZM132.19 6.30L132.19 6.30L120.09 6.30Q120.09 6.68 120.09 7.44Q120.09 8.19 120.09 8.57L120.09 8.57Q120.09 8.61 120.09 8.64Q120.09 8.68 120.07 8.68Q120.05 8.68 120.02 8.61L120.02 8.61Q119.56 7.94 118.91 7.47Q118.27 7.00 117.50 6.67Q116.72 6.33 115.90 6.14Q115.08 5.95 114.28 5.86Q113.47 5.77 112.77 5.77L112.77 5.77Q111.27 5.77 109.81 6.07Q108.36 6.37 107.08 6.96Q105.80 7.56 104.74 8.42Q103.67 9.27 102.90 10.39Q102.13 11.51 101.71 12.84Q101.29 14.17 101.29 15.75L101.29 15.75Q101.29 18.09 102.18 19.93Q103.08 21.77 104.60 23.05Q106.12 24.32 108.08 25.01Q110.04 25.69 112.17 25.69L112.17 25.69Q113.64 25.69 115.08 25.52Q116.52 25.34 117.98 24.46L117.98 24.46L120.09 16.24Q119.42 18.27 116.62 18.27L116.62 18.27Q115.57 18.27 114.77 17.97Q113.96 17.67 113.49 17.11Q113.02 16.55 113.02 15.75L113.02 15.75Q113.02 14.98 113.47 14.45Q113.92 13.93 114.75 13.67Q115.57 13.40 116.62 13.40L116.62 13.40Q117.39 13.40 118.02 13.56Q118.65 13.72 119.12 14.02Q119.59 14.31 119.84 14.77Q120.09 15.22 120.09 15.85L120.09 15.85L120.09 22.33Q120.09 23.66 119.56 24.57Q119.03 25.48 118.13 26.04Q117.22 26.60 116.04 26.86Q114.87 27.13 113.54 27.13L113.54 27.13Q111.93 27.13 110.28 26.81Q108.64 26.50 107.19 25.95Q105.73 25.41 104.72 24.75L104.72 24.75L104.72 30.31Q107.10 31.64 110.11 32.30Q113.12 32.97 116.20 32.97L116.20 32.97Q118.61 32.97 120.96 32.57Q123.31 32.16 125.34 31.39Q127.37 30.63 128.91 29.45Q130.44 28.28 131.32 26.76Q132.19 25.23 132.19 23.34L132.19 23.34Q132.19 19.07 132.19 14.80Q132.19 10.53 132.19 6.30ZM149.03 20.09L149.03 20.09Q150.89 20.09 151.90 19.42Q152.92 18.76 152.95 17.60L152.95 17.60L163.77 21.14Q163.14 23.34 161.09 25.15Q159.04 26.95 155.93 28Q152.81 29.05 148.96 29.05L148.96 29.05Q145.67 29.05 142.82 28.32Q139.97 27.58 137.81 26.09Q135.66 24.61 134.44 22.36Q133.21 20.13 133.21 17.15L133.21 17.15Q133.21 14.17 134.44 11.93Q135.66 9.69 137.81 8.21Q139.97 6.72 142.84 5.98Q145.71 5.25 148.96 5.25L148.96 5.25Q152.29 5.25 155.07 5.98Q157.85 6.72 159.86 8.24Q161.88 9.76 162.98 12.09Q164.08 14.42 164.08 17.60L164.08 17.60L145.01 17.60Q145.01 17.60 144.99 17.60Q144.97 17.60 144.97 17.60Q144.97 17.60 144.97 17.64L144.97 17.64Q144.97 18.16 145.25 18.62Q145.53 19.07 146.04 19.41Q146.55 19.74 147.30 19.91Q148.05 20.09 149.03 20.09ZM148.96 14.10L148.96 14.10Q147.25 14.10 146.13 14.72Q145.01 15.33 145.01 16.45L145.01 16.45Q145.01 16.48 145.01 16.50Q145.01 16.52 145.01 16.52Q145.01 16.52 145.02 16.52Q145.04 16.52 145.04 16.52L145.04 16.52L152.85 16.52Q152.88 16.52 152.88 16.50Q152.88 16.48 152.88 16.45L152.88 16.45Q152.88 15.89 152.58 15.45Q152.29 15.01 151.76 14.72Q151.24 14.42 150.52 14.26Q149.80 14.10 148.96 14.10Z"/></g>
        
      </svg>
    