<svg viewBox="0 0 374 62" xmlns="http://www.w3.org/2000/svg" data-logo="logo">
        <g transform="translate(0, 11) rotate(0)" id="logogram"><path fill="B" d="M43 0C50.1797 6.44277e-07 56 5.8203 56 13C56 20.1797 50.1797 26 43 26H34.4844L48.4844 40H31.5156L15.7578 24.2422C14.672 23.1564 14 21.6569 14 20C14 16.6863 16.6863 14 20 14H43C43.5523 14 44 13.5523 44 13C44 12.4477 43.5523 12 43 12H20C15.5817 12 12 15.5817 12 20C12 22.3901 13.0482 24.5347 14.71 26H14.6875L28.6875 40H20C8.95431 40 0 31.0457 0 20C0 8.95431 8.9543 0 20 0H43Z"></path><path fill="B" d="M56 28V40H51.3125L39.3125 28H56Z"></path></g>
        <g transform="translate(62, 1)" id="logotype"><path d="M29.79 51L7.30 51Q7.30 46.38 7.30 41.77Q7.30 37.16 7.30 32.51Q7.30 27.86 7.30 23.24L7.30 23.24Q7.30 20.06 7.30 16.94Q7.30 13.82 7.30 10.70L7.30 10.70L29.79 10.70Q29.79 14.99 29.79 19.25Q29.79 23.50 29.79 27.79L29.79 27.79Q29.79 33.58 29.79 39.40Q29.79 45.22 29.79 51L29.79 51ZM59.56 51L37.07 51Q37.07 45.93 37.07 40.73Q37.07 35.53 37.07 30.46L37.07 30.46Q37.07 28.57 36.13 27.79Q35.19 27.02 33.89 26.95Q32.59 26.88 31.51 27.27Q30.44 27.66 30.18 28.05L30.18 28.05L35.38 11.35Q40.13 9.27 45.65 9.27L45.65 9.27Q48.38 9.27 50.85 9.92Q53.32 10.57 55.30 11.93Q57.29 13.30 58.42 15.54Q59.56 17.78 59.56 20.90L59.56 20.90Q59.56 22.79 59.56 24.74Q59.56 26.69 59.56 28.57L59.56 28.57Q59.56 29.48 59.56 30.43Q59.56 31.37 59.56 32.28Q59.56 33.19 59.56 34.16L59.56 34.16Q59.56 38.33 59.56 42.55Q59.56 46.77 59.56 51L59.56 51ZM88.94 51L66.45 51Q66.45 45.93 66.45 40.73Q66.45 35.53 66.45 30.46L66.45 30.46Q66.45 28.57 65.51 27.79Q64.56 27.02 63.27 26.95Q61.97 26.88 60.89 27.27Q59.82 27.66 59.56 28.05L59.56 28.05L64.11 11.35Q66.45 10.31 69.15 9.79Q71.84 9.27 74.51 9.27L74.51 9.27Q78.28 9.27 81.56 10.44Q84.84 11.61 86.89 14.14Q88.94 16.68 88.94 20.90L88.94 20.90L88.94 51ZM120.20 36.31L120.20 36.31Q123.65 36.31 125.53 35.08Q127.42 33.84 127.48 31.70L127.48 31.70L147.57 38.26Q146.40 42.36 142.60 45.70Q138.80 49.05 133.01 51Q127.22 52.95 120.08 52.95L120.08 52.95Q113.97 52.95 108.67 51.59Q103.37 50.22 99.37 47.46Q95.38 44.70 93.10 40.53Q90.83 36.38 90.83 30.85L90.83 30.85Q90.83 25.32 93.10 21.16Q95.38 17.00 99.37 14.24Q103.37 11.48 108.70 10.12Q114.03 8.75 120.08 8.75L120.08 8.75Q126.25 8.75 131.42 10.12Q136.59 11.48 140.32 14.31Q144.06 17.13 146.11 21.46Q148.16 25.78 148.16 31.70L148.16 31.70L112.73 31.70Q112.73 31.70 112.70 31.70Q112.66 31.70 112.66 31.70Q112.66 31.70 112.66 31.76L112.66 31.76Q112.66 32.73 113.19 33.58Q113.70 34.42 114.65 35.04Q115.59 35.66 116.99 35.98Q118.38 36.31 120.20 36.31ZM120.08 25.20L120.08 25.20Q116.89 25.20 114.81 26.33Q112.73 27.47 112.73 29.55L112.73 29.55Q112.73 29.61 112.73 29.65Q112.73 29.68 112.73 29.68Q112.73 29.68 112.76 29.68Q112.80 29.68 112.80 29.68L112.80 29.68L127.29 29.68Q127.35 29.68 127.35 29.65Q127.35 29.61 127.35 29.55L127.35 29.55Q127.35 28.51 126.80 27.70Q126.25 26.88 125.28 26.33Q124.30 25.78 122.97 25.49Q121.63 25.20 120.08 25.20ZM149.98 10.70L172.47 10.70Q172.47 14.60 172.47 18.53Q172.47 22.46 172.47 26.40Q172.47 30.33 172.47 34.30L172.47 34.30Q172.47 38.45 172.47 42.62Q172.47 46.77 172.47 51L172.47 51L149.98 51Q149.98 44.56 149.98 38.13Q149.98 31.70 149.98 25.26L149.98 25.26Q149.98 21.62 149.98 17.98Q149.98 14.34 149.98 10.70L149.98 10.70ZM172.40 35.53L172.40 35.53L175.91 18.05Q176.50 15.25 178.22 13.40Q179.94 11.55 182.28 10.57Q184.62 9.59 187.09 9.37Q189.56 9.14 191.64 9.56Q193.72 9.98 194.96 10.96L194.96 10.96L190.02 35.14Q188.13 33.58 185.43 33.00Q182.74 32.41 180.01 32.57Q177.28 32.73 175.20 33.52Q173.12 34.30 172.40 35.53ZM251.50 10.70L251.50 10.70L229.02 10.70Q229.02 11.41 229.02 12.81Q229.02 14.21 229.02 14.92L229.02 14.92Q229.02 14.99 229.02 15.05Q229.02 15.12 228.98 15.12Q228.95 15.12 228.89 14.99L228.89 14.99Q228.04 13.75 226.84 12.88Q225.64 12 224.21 11.38Q222.78 10.77 221.25 10.41Q219.72 10.05 218.23 9.89Q216.73 9.73 215.43 9.73L215.43 9.73Q212.64 9.73 209.94 10.28Q207.24 10.83 204.87 11.93Q202.50 13.04 200.51 14.63Q198.53 16.23 197.10 18.30Q195.67 20.38 194.89 22.86Q194.11 25.32 194.11 28.25L194.11 28.25Q194.11 32.61 195.77 36.02Q197.43 39.43 200.25 41.80Q203.08 44.17 206.72 45.44Q210.36 46.71 214.33 46.71L214.33 46.71Q217.06 46.71 219.72 46.38Q222.39 46.06 225.12 44.44L225.12 44.44L229.02 29.16Q227.78 32.93 222.58 32.93L222.58 32.93Q220.63 32.93 219.14 32.38Q217.64 31.82 216.76 30.79Q215.89 29.75 215.89 28.25L215.89 28.25Q215.89 26.82 216.73 25.84Q217.58 24.87 219.10 24.38Q220.63 23.89 222.58 23.89L222.58 23.89Q224.01 23.89 225.18 24.19Q226.35 24.48 227.23 25.03Q228.11 25.59 228.56 26.43Q229.02 27.27 229.02 28.45L229.02 28.45L229.02 40.47Q229.02 42.94 228.04 44.63Q227.06 46.32 225.38 47.36Q223.69 48.40 221.51 48.89Q219.33 49.38 216.86 49.38L216.86 49.38Q213.87 49.38 210.81 48.79Q207.76 48.20 205.06 47.20Q202.37 46.19 200.48 44.95L200.48 44.95L200.48 55.29Q204.90 57.76 210.49 58.99Q216.08 60.23 221.80 60.23L221.80 60.23Q226.29 60.23 230.64 59.48Q235.00 58.73 238.77 57.30Q242.54 55.88 245.40 53.70Q248.25 51.52 249.88 48.69Q251.50 45.87 251.50 42.36L251.50 42.36Q251.50 34.42 251.50 26.49Q251.50 18.56 251.50 10.70ZM282.77 36.31L282.77 36.31Q286.22 36.31 288.10 35.08Q289.99 33.84 290.05 31.70L290.05 31.70L310.13 38.26Q308.97 42.36 305.16 45.70Q301.36 49.05 295.57 51Q289.79 52.95 282.64 52.95L282.64 52.95Q276.53 52.95 271.23 51.59Q265.94 50.22 261.94 47.46Q257.94 44.70 255.67 40.53Q253.39 36.38 253.39 30.85L253.39 30.85Q253.39 25.32 255.67 21.16Q257.94 17.00 261.94 14.24Q265.94 11.48 271.26 10.12Q276.60 8.75 282.64 8.75L282.64 8.75Q288.81 8.75 293.98 10.12Q299.15 11.48 302.89 14.31Q306.63 17.13 308.67 21.46Q310.72 25.78 310.72 31.70L310.72 31.70L275.30 31.70Q275.30 31.70 275.26 31.70Q275.23 31.70 275.23 31.70Q275.23 31.70 275.23 31.76L275.23 31.76Q275.23 32.73 275.75 33.58Q276.27 34.42 277.21 35.04Q278.16 35.66 279.55 35.98Q280.95 36.31 282.77 36.31ZM282.64 25.20L282.64 25.20Q279.45 25.20 277.38 26.33Q275.30 27.47 275.30 29.55L275.30 29.55Q275.30 29.61 275.30 29.65Q275.30 29.68 275.30 29.68Q275.30 29.68 275.33 29.68Q275.36 29.68 275.36 29.68L275.36 29.68L289.86 29.68Q289.92 29.68 289.92 29.65Q289.92 29.61 289.92 29.55L289.92 29.55Q289.92 28.51 289.37 27.70Q288.81 26.88 287.84 26.33Q286.87 25.78 285.53 25.49Q284.20 25.20 282.64 25.20Z" fill="black"></path></g>
        
      </svg>